<?xml version="1.0" standalone="no"?>
<!DOCTYPE svg PUBLIC "-//W3C//DTD SVG 20010904//EN"
 "http://www.w3.org/TR/2001/REC-SVG-20010904/DTD/svg10.dtd">
<svg version="1.0" xmlns="http://www.w3.org/2000/svg"
 width="2000.000000pt" height="2000.000000pt" viewBox="0 0 2000.000000 2000.000000"
 preserveAspectRatio="xMidYMid meet">
<metadata>
Created by potrace 1.11, written by Peter Selinger 2001-2013
</metadata>
<g transform="translate(0.000000,2000.000000) scale(0.100000,-0.100000)"
fill="#000000" stroke="none">
<path d="M9687 17874 c-1 -1 -117 -4 -257 -8 -140 -4 -284 -9 -320 -11 -253
-15 -463 -30 -550 -40 -19 -2 -80 -9 -135 -15 -55 -6 -149 -18 -210 -26 -60
-8 -128 -17 -150 -20 -95 -11 -413 -67 -565 -99 -91 -20 -176 -38 -190 -41
-262 -55 -721 -189 -1025 -299 -412 -148 -886 -365 -1178 -537 -26 -15 -50
-28 -52 -28 -7 0 -230 -136 -350 -213 -202 -130 -522 -362 -671 -486 -111 -93
-146 -124 -218 -186 -121 -105 -193 -174 -370 -351 -864 -863 -1567 -1983
-2056 -3274 -170 -449 -372 -1115 -454 -1500 -9 -42 -23 -101 -44 -195 -12
-49 -24 -106 -27 -125 -3 -19 -8 -42 -10 -50 -2 -8 -6 -26 -9 -40 -2 -14 -18
-95 -34 -180 -46 -233 -80 -431 -99 -565 -25 -180 -24 -652 2 -795 2 -14 9
-56 15 -95 6 -38 22 -113 35 -167 176 -693 604 -1173 1240 -1386 112 -38 298
-82 344 -82 11 0 22 -3 24 -8 3 -4 -18 -45 -45 -92 -363 -611 -152 -1323 512
-1733 200 -123 516 -240 735 -272 22 -4 67 -10 100 -16 33 -5 76 -9 96 -9 29
0 42 -6 62 -32 13 -18 66 -74 116 -124 l91 -90 -19 -90 c-11 -49 -23 -102 -26
-119 -13 -63 -12 -291 1 -370 72 -419 373 -745 804 -868 240 -68 542 -71 815
-6 206 48 458 154 630 263 39 25 76 45 84 46 7 0 59 -13 115 -30 570 -166
1348 -319 1960 -386 33 -3 67 -8 75 -9 9 -2 32 -4 51 -4 32 -1 39 -6 68 -56
143 -239 416 -470 726 -615 438 -205 937 -264 1471 -174 332 55 737 236 970
431 139 117 233 218 315 338 43 64 112 186 122 217 3 9 39 -8 107 -50 184
-112 411 -208 541 -228 25 -3 56 -8 70 -11 63 -11 223 -10 295 2 181 29 356
116 495 244 l54 51 116 1 c63 0 126 2 140 4 14 1 59 6 100 9 41 4 82 9 90 11
8 2 32 6 53 9 70 11 220 46 306 72 700 212 1219 711 1326 1276 8 45 16 83 18
84 1 1 22 18 47 39 113 93 323 310 430 445 28 36 55 69 59 73 5 4 41 10 82 13
143 9 315 35 464 70 83 19 161 37 175 40 42 8 124 52 155 82 17 16 66 53 110
83 116 78 269 234 339 347 291 464 233 1036 -159 1553 l-34 46 67 12 c114 21
302 77 417 126 589 247 944 692 1074 1350 40 203 50 342 45 630 -4 279 -3 266
-49 600 -2 19 -21 147 -31 210 -103 669 -338 1482 -630 2177 -128 306 -333
726 -454 933 -10 17 -29 50 -42 75 -207 375 -615 959 -901 1290 -12 14 -49 56
-82 95 -33 38 -82 94 -110 124 -76 84 -420 428 -510 510 -139 127 -414 354
-570 469 -82 62 -154 115 -160 120 -42 34 -371 251 -467 307 -9 6 -63 37 -120
71 -569 337 -1256 631 -1940 829 -233 68 -621 165 -752 189 -14 3 -61 12 -103
20 -136 27 -332 62 -398 71 -22 3 -65 10 -95 15 -59 10 -329 45 -420 55 -30 3
-71 8 -90 10 -19 3 -60 7 -90 9 -30 3 -84 8 -120 11 -281 24 -405 31 -675 41
-173 6 -683 12 -688 8z"/>
</g>
</svg>
