<svg id="visual" viewBox="0 0 960 540" width="960" height="540" xmlns="http://www.w3.org/2000/svg"
    xmlns:xlink="http://www.w3.org/1999/xlink" version="1.1">
    <g transform="translate(0, 540)">
        <path
            d="M0 -216C23 -198.1 45.9 -180.3 70.4 -170C94.9 -159.7 121 -157.1 144.2 -144.2C167.5 -131.4 188.1 -108.4 199.6 -82.7C211.1 -56.9 213.5 -28.5 216 0L0 0Z"
            fill="#171b2b"></path>
        <path
            d="M0 -144C15.3 -132.1 30.6 -120.2 46.9 -113.3C63.3 -106.5 80.6 -104.7 96.2 -96.2C111.7 -87.6 125.4 -72.3 133 -55.1C140.7 -37.9 142.4 -19 144 0L0 0Z"
            fill="#091524"></path>
        <path
            d="M0 -72C7.7 -66 15.3 -60.1 23.5 -56.7C31.6 -53.2 40.3 -52.4 48.1 -48.1C55.8 -43.8 62.7 -36.1 66.5 -27.6C70.4 -19 71.2 -9.5 72 0L0 0Z"
            fill="#001220"></path>
    </g>
</svg>