<svg id="visual" viewBox="0 0 960 540" width="960" height="540" xmlns="http://www.w3.org/2000/svg"
    xmlns:xlink="http://www.w3.org/1999/xlink" version="1.1">
    <rect x="0" y="0" width="960" height="540" fill="#001220"></rect>
    <defs>
        <linearGradient id="grad1_0" x1="43.8%" y1="0%" x2="100%" y2="100%">
            <stop offset="14.444444444444446%" stop-color="#3c8dfa" stop-opacity="1"></stop>
            <stop offset="85.55555555555554%" stop-color="#3c8dfa" stop-opacity="1"></stop>
        </linearGradient>
    </defs>
    <defs>
        <linearGradient id="grad1_1" x1="43.8%" y1="0%" x2="100%" y2="100%">
            <stop offset="14.444444444444446%" stop-color="#3c8dfa" stop-opacity="1"></stop>
            <stop offset="85.55555555555554%" stop-color="#004e85" stop-opacity="1"></stop>
        </linearGradient>
    </defs>
    <defs>
        <linearGradient id="grad1_2" x1="43.8%" y1="0%" x2="100%" y2="100%">
            <stop offset="14.444444444444446%" stop-color="#001220" stop-opacity="1"></stop>
            <stop offset="85.55555555555554%" stop-color="#004e85" stop-opacity="1"></stop>
        </linearGradient>
    </defs>
    <defs>
        <linearGradient id="grad2_0" x1="0%" y1="0%" x2="56.3%" y2="100%">
            <stop offset="14.444444444444446%" stop-color="#3c8dfa" stop-opacity="1"></stop>
            <stop offset="85.55555555555554%" stop-color="#3c8dfa" stop-opacity="1"></stop>
        </linearGradient>
    </defs>
    <defs>
        <linearGradient id="grad2_1" x1="0%" y1="0%" x2="56.3%" y2="100%">
            <stop offset="14.444444444444446%" stop-color="#004e85" stop-opacity="1"></stop>
            <stop offset="85.55555555555554%" stop-color="#3c8dfa" stop-opacity="1"></stop>
        </linearGradient>
    </defs>
    <defs>
        <linearGradient id="grad2_2" x1="0%" y1="0%" x2="56.3%" y2="100%">
            <stop offset="14.444444444444446%" stop-color="#004e85" stop-opacity="1"></stop>
            <stop offset="85.55555555555554%" stop-color="#001220" stop-opacity="1"></stop>
        </linearGradient>
    </defs>
    <g transform="translate(960, 0)">
        <path
            d="M0 216C-22.9 194.9 -45.8 173.8 -66.2 159.8C-86.6 145.9 -104.4 139 -128.7 128.7C-153 118.4 -183.9 104.7 -199.6 82.7C-215.2 60.6 -215.6 30.3 -216 0L0 0Z"
            fill="#002f50"></path>
        <path
            d="M0 144C-15.3 129.9 -30.6 115.9 -44.1 106.6C-57.7 97.2 -69.6 92.7 -85.8 85.8C-102 78.9 -122.6 69.8 -133 55.1C-143.5 40.4 -143.7 20.2 -144 0L0 0Z"
            fill="#126dbe"></path>
        <path
            d="M0 72C-7.6 65 -15.3 57.9 -22.1 53.3C-28.9 48.6 -34.8 46.3 -42.9 42.9C-51 39.5 -61.3 34.9 -66.5 27.6C-71.7 20.2 -71.9 10.1 -72 0L0 0Z"
            fill="#3c8dfa"></path>
    </g>
</svg>