<svg id="visual" viewBox="0 0 960 540" width="960" height="540" xmlns="http://www.w3.org/2000/svg" xmlns:xlink="http://www.w3.org/1999/xlink" version="1.1"><path d="M0 350L22.8 357C45.7 364 91.3 378 137 379.8C182.7 381.7 228.3 371.3 274 367C319.7 362.7 365.3 364.3 411.2 370.5C457 376.7 503 387.3 548.8 380.2C594.7 373 640.3 348 686 340.2C731.7 332.3 777.3 341.7 823 341.5C868.7 341.3 914.3 331.7 937.2 326.8L960 322L960 541L937.2 541C914.3 541 868.7 541 823 541C777.3 541 731.7 541 686 541C640.3 541 594.7 541 548.8 541C503 541 457 541 411.2 541C365.3 541 319.7 541 274 541C228.3 541 182.7 541 137 541C91.3 541 45.7 541 22.8 541L0 541Z" fill="#74c7ec"></path><path d="M0 403L22.8 402.3C45.7 401.7 91.3 400.3 137 394.3C182.7 388.3 228.3 377.7 274 380.5C319.7 383.3 365.3 399.7 411.2 407C457 414.3 503 412.7 548.8 403.8C594.7 395 640.3 379 686 373C731.7 367 777.3 371 823 374.5C868.7 378 914.3 381 937.2 382.5L960 384L960 541L937.2 541C914.3 541 868.7 541 823 541C777.3 541 731.7 541 686 541C640.3 541 594.7 541 548.8 541C503 541 457 541 411.2 541C365.3 541 319.7 541 274 541C228.3 541 182.7 541 137 541C91.3 541 45.7 541 22.8 541L0 541Z" fill="#6195b9"></path><path d="M0 397L22.8 402.3C45.7 407.7 91.3 418.3 137 421.2C182.7 424 228.3 419 274 420.5C319.7 422 365.3 430 411.2 433C457 436 503 434 548.8 435.8C594.7 437.7 640.3 443.3 686 440.7C731.7 438 777.3 427 823 426.3C868.7 425.7 914.3 435.3 937.2 440.2L960 445L960 541L937.2 541C914.3 541 868.7 541 823 541C777.3 541 731.7 541 686 541C640.3 541 594.7 541 548.8 541C503 541 457 541 411.2 541C365.3 541 319.7 541 274 541C228.3 541 182.7 541 137 541C91.3 541 45.7 541 22.8 541L0 541Z" fill="#4c6785"></path><path d="M0 486L22.8 477.3C45.7 468.7 91.3 451.3 137 448.3C182.7 445.3 228.3 456.7 274 457.5C319.7 458.3 365.3 448.7 411.2 443.3C457 438 503 437 548.8 443.8C594.7 450.7 640.3 465.3 686 466.5C731.7 467.7 777.3 455.3 823 450.5C868.7 445.7 914.3 448.3 937.2 449.7L960 451L960 541L937.2 541C914.3 541 868.7 541 823 541C777.3 541 731.7 541 686 541C640.3 541 594.7 541 548.8 541C503 541 457 541 411.2 541C365.3 541 319.7 541 274 541C228.3 541 182.7 541 137 541C91.3 541 45.7 541 22.8 541L0 541Z" fill="#343d53"></path><path d="M0 503L22.8 500.7C45.7 498.3 91.3 493.7 137 495.5C182.7 497.3 228.3 505.7 274 505C319.7 504.3 365.3 494.7 411.2 493.8C457 493 503 501 548.8 505.5C594.7 510 640.3 511 686 509C731.7 507 777.3 502 823 497C868.7 492 914.3 487 937.2 484.5L960 482L960 541L937.2 541C914.3 541 868.7 541 823 541C777.3 541 731.7 541 686 541C640.3 541 594.7 541 548.8 541C503 541 457 541 411.2 541C365.3 541 319.7 541 274 541C228.3 541 182.7 541 137 541C91.3 541 45.7 541 22.8 541L0 541Z" fill="#181825"></path></svg>