<svg id="visual" viewBox="0 0 900 128" width="900" height="128" xmlns="http://www.w3.org/2000/svg"
    xmlns:xlink="http://www.w3.org/1999/xlink" version="1.1">
    <path
        d="M0 58L21.5 61.3C43 64.7 86 71.3 128.8 73.8C171.7 76.3 214.3 74.7 257.2 70.5C300 66.3 343 59.7 385.8 56.2C428.7 52.7 471.3 52.3 514.2 57.7C557 63 600 74 642.8 74.2C685.7 74.3 728.3 63.7 771.2 58.3C814 53 857 53 878.5 53L900 53L900 129L878.5 129C857 129 814 129 771.2 129C728.3 129 685.7 129 642.8 129C600 129 557 129 514.2 129C471.3 129 428.7 129 385.8 129C343 129 300 129 257.2 129C214.3 129 171.7 129 128.8 129C86 129 43 129 21.5 129L0 129Z"
        fill="#181825" stroke-linecap="round" stroke-linejoin="miter"></path>
</svg>