<svg xmlns="http://www.w3.org/2000/svg" viewBox="0 0 4956.07 4252.91"><defs><style>.cls-1{fill:#f2b948;}.cls-2{opacity:0.6;}.cls-3{fill:#fff;}.cls-4{fill:#f9e190;}.cls-5{opacity:0.29;}.cls-6{fill:#371a45;}.cls-7{opacity:0.16;}.cls-8{fill:#ff8661;}.cls-9{fill:#ed2e7a;}</style></defs><g id="Layer_2" data-name="Layer 2"><g id="Layer_1-2" data-name="Layer 1"><path class="cls-1" d="M1862.37,2790.62,1848.3,2769a80.94,80.94,0,0,1,21.5-110.58L4593.11,803.54c255.33-190.75,449.14,144.25,175,268.38L1972.23,2815.56A80.93,80.93,0,0,1,1862.37,2790.62Z"/><g class="cls-2"><path class="cls-3" d="M1907.78,2769.65,4631.09,914.73c114.63-85.63,216.69-65.17,269.75-5.53,8.55-123.71-135.46-234.35-307.73-105.66L1869.8,2658.46A80.94,80.94,0,0,0,1848.3,2769l14.07,21.58a80.07,80.07,0,0,0,15.94,17.47A80.39,80.39,0,0,1,1907.78,2769.65Z"/></g><path class="cls-4" d="M4220.8,1072.72s31.32,175.86,152.29,257.81l-249.27,140s-146.34-77.08-122.12-233.21Z"/><g class="cls-5"><path class="cls-6" d="M2435.3,2294.11l157.51,146.29,17.91-1.75,997.45-622.06,18-93.1c18.37-94.79,54.14-185.52,106.55-266.61,14.91-23.07,27.92-41,34.79-45.32"/></g><path class="cls-6" d="M4112.78,1507.37a38.34,38.34,0,0,1-6.9-2.82c-7-3.66-170.3-92-142.2-273.14a38.46,38.46,0,0,1,14.91-24.87L4197.7,1042a38.47,38.47,0,0,1,61,24h0c.29,1.6,30.31,161.15,136,232.76a38.47,38.47,0,0,1-2.74,65.39l-249.28,140A38.48,38.48,0,0,1,4112.78,1507.37ZM4038,1258.15c-6.66,89.68,55.72,145.52,86.93,167.62l180.8-101.53c-58.32-58.69-90.82-134.74-107.51-186.43Z"/><path class="cls-6" d="M1891.13,2876.45a135,135,0,0,1-74.52-56h0l-14.06-21.58a135,135,0,0,1,36-185.24L4561.39,759c95.91-71.24,199-87.17,283-43.68,69.87,36.17,113.69,110.27,111.62,188.76-2.38,90.76-61.35,169.31-161.95,216l-2792.9,1741.8A135.9,135.9,0,0,1,1891.13,2876.45Zm17-115.66a26.21,26.21,0,0,0,35.7,8.1L4739.19,1025.56a54,54,0,0,1,6.37-3.41c63-28.55,99.94-72.62,101.2-120.9a97.79,97.79,0,0,0-52.62-88.85c-45.65-23.68-107-10.9-168.33,34.92-.64.47-1.29.93-1.94,1.38L1900.56,2703.61c-11.22,7.84-14.29,23.62-6.49,35.59Z"/><path class="cls-3" d="M2754.76,3257.78,2708.53,2595c-3.71-53.11-70.88-117.33-171.58-184.54-582.07-388.53-1432.71-328.64-1960.41,132.72-94.16,82.32-154.55,157-150.78,211l46.36,664.68c-91.82,35.84-152.87,108.21-147.36,187.21,7.14,102.35,123.42,178,262.69,173.65a527.25,527.25,0,0,0,82.21,77.87c-24,53.13-24.67,108.59,3.86,150.9,51.57,76.48,178.62,81,283.79,10.1a315.24,315.24,0,0,0,32-24.85,2057.4,2057.4,0,0,0,435,66.87c35.48,87.17,150.15,145.91,281.77,136.73,135.33-9.44,243.17-87.45,262-182.24q87.14-18.81,172.36-44.94c55.14,25.08,124.91,34.32,197.87,21.58,143.49-25.05,247.27-125.45,242.31-229.61,46.84-39.22,85.77-84.2,115.42-133.17,98.63,6.3,184.73-33.72,213-107.85C2944.51,3428,2876.17,3314.29,2754.76,3257.78Z"/><path class="cls-6" d="M732.8,4113.65c-43.91-13.15-80.51-38.91-104.58-74.6-31.18-46.25-39-104.21-22.91-163.56a579.3,579.3,0,0,1-42.42-41.15c-157.64-5.08-284-100.14-292.63-224.47C264,3520,319.8,3435,415,3384.94l-43.73-627c-4.84-69.39,49-150.73,169.33-256,264.47-231.23,616.79-372.74,992-398.44,376.05-25.76,743.52,67.07,1034.67,261.4,128.77,86,191,157.83,195.75,226.19l44.09,632.15c130.3,73.75,195.53,205.53,152.91,317.27-33,86.52-123.26,140.79-234.7,143.57a592.68,592.68,0,0,1-90.78,103.37c-10.72,122.22-128.66,230.42-286.92,258-73.08,12.75-146.83,6.52-210.15-17.46-41.25,12.25-83.52,23.41-126.2,33.3-39.88,104.11-158.09,180.43-301.5,190.43-137.34,9.56-263-46.21-319.76-138.34a2114.77,2114.77,0,0,1-387.71-59.93q-7.19,5.41-14.47,10.32c-60.36,40.7-129.43,61.84-194.47,59.53A240.67,240.67,0,0,1,732.8,4113.65ZM603.13,3727.4a54.58,54.58,0,0,1,26,17,474.52,474.52,0,0,0,73.7,69.8,54.62,54.62,0,0,1,16.62,65.89c-17,37.6-17.21,73.27-.62,97.87,20.11,29.85,57.78,35.52,78.42,36.26,41.55,1.47,88.75-13.44,129.51-40.92a258.82,258.82,0,0,0,26.42-20.58,54.64,54.64,0,0,1,50.15-11.76A2004.29,2004.29,0,0,0,1426.72,4006a54.64,54.64,0,0,1,48.1,34c27.22,66.87,122.84,110.1,227.37,102.82,106.78-7.45,198-66.94,212.23-138.38a54.64,54.64,0,0,1,42-42.75c57-12.31,113.47-27,167.83-43.76a54.85,54.85,0,0,1,38.69,2.48c47.62,21.66,106.5,27.87,165.85,17.5,114.22-19.94,200.81-96,197.13-173.19a54.63,54.63,0,0,1,19.5-44.49c42.21-35.35,77.12-75.57,103.75-119.58a54.65,54.65,0,0,1,50.23-26.22c76.32,4.87,140-24.39,158.49-72.81,24.62-64.55-30.83-149.91-126.24-194.32a54.66,54.66,0,0,1-31.45-45.74L2654,2598.77c-.34-4.77-7.3-49.39-147.41-142.9C1951.05,2085,1119,2141.43,612.51,2584.28c-131.76,115.2-132.59,161.24-132.25,166.11l46.36,664.68a54.64,54.64,0,0,1-34.63,54.7c-72.13,28.16-116.37,80.17-112.72,132.5,5,71.14,97.6,126.27,206.48,122.85A54.72,54.72,0,0,1,603.13,3727.4Z"/><g class="cls-7"><path class="cls-6" d="M2569.78,2691.86,2670.48,2292,2205,2075.33l-800.58-206L832.79,2027.76,518.9,2736.85l168.44,312.53c44.07-113.31,102.86-204.59,171.3-278.14,75.55,47,160.24,47.57,189.76.88,22-34.87,7.07-86.22-33.07-130,332.79-207,780.45-141.12,1011.47-47.23,356.94,145.07,514.48,382.94,514.48,382.94Z"/></g><g class="cls-5"><path class="cls-6" d="M587.45,3779.73a520.83,520.83,0,0,0,58.17,58.33,835.69,835.69,0,0,1,79.59-64.69s-246.72-131.12-266-194.09,56-59.5,111.92-119,52.41-175,52.41-175l-161.09-4.91,9.66,138.47c-91.82,35.84-152.87,108.21-147.36,187.21C331.9,3708.43,448.18,3784.08,587.45,3779.73Z"/></g><g class="cls-5"><path class="cls-6" d="M2607.9,3616.53c-757.23,745.55-1581.66,281.89-1581.66,281.89L986,3985a1153.22,1153.22,0,0,1-110.64,72.88,304.26,304.26,0,0,0,82-39.23,314.27,314.27,0,0,0,32-24.85,2057.4,2057.4,0,0,0,435,66.87c35.48,87.17,150.15,145.91,281.77,136.72,135.33-9.43,243.17-87.44,262-182.23q87.14-18.81,172.36-44.94c55.14,25.08,124.92,34.32,197.87,21.58,143.48-25.05,247.27-125.45,242.31-229.61a552.08,552.08,0,0,0,84.37-88.32Z"/></g><g class="cls-5"><path class="cls-6" d="M2754,2570.46c-2.11-30.32-25-64.28-62.91-100.34l-139.43,347.81-72.15-63.4s-133,381.48-141.53,472.4c-8.71,92.72,162.78,220.37,257.21,96.12s-17.5-5.24-17.5-5.24l199-422.65Z"/></g><path class="cls-6" d="M732.8,4113.65c-43.91-13.15-80.51-38.91-104.58-74.6-31.18-46.25-39-104.21-22.91-163.56a579.3,579.3,0,0,1-42.42-41.15c-157.64-5.08-284-100.14-292.63-224.47C264,3520,319.8,3435,415,3384.94l-43.73-627c-4.84-69.39,49-150.73,169.33-256,264.47-231.23,616.79-372.74,992-398.44,376.05-25.76,743.52,67.07,1034.67,261.4,128.77,86,191,157.83,195.75,226.19l44.09,632.15c130.3,73.75,195.53,205.53,152.91,317.27-33,86.52-123.26,140.79-234.7,143.57a592.68,592.68,0,0,1-90.78,103.37c-10.72,122.22-128.66,230.42-286.92,258-73.08,12.75-146.83,6.52-210.15-17.46-41.25,12.25-83.52,23.41-126.2,33.3-39.88,104.11-158.09,180.43-301.5,190.43-137.34,9.56-263-46.21-319.76-138.34a2114.77,2114.77,0,0,1-387.71-59.93q-7.19,5.41-14.47,10.32c-60.36,40.7-129.43,61.84-194.47,59.53A240.67,240.67,0,0,1,732.8,4113.65ZM603.13,3727.4a54.58,54.58,0,0,1,26,17,474.52,474.52,0,0,0,73.7,69.8,54.62,54.62,0,0,1,16.62,65.89c-17,37.6-17.21,73.27-.62,97.87,20.11,29.85,57.78,35.52,78.42,36.26,41.55,1.47,88.75-13.44,129.51-40.92a258.82,258.82,0,0,0,26.42-20.58,54.64,54.64,0,0,1,50.15-11.76A2004.29,2004.29,0,0,0,1426.72,4006a54.64,54.64,0,0,1,48.1,34c27.22,66.87,122.84,110.1,227.37,102.82,106.78-7.45,198-66.94,212.23-138.38a54.64,54.64,0,0,1,42-42.75c57-12.31,113.47-27,167.83-43.76a54.85,54.85,0,0,1,38.69,2.48c47.62,21.66,106.5,27.87,165.85,17.5,114.22-19.94,200.81-96,197.13-173.19a54.63,54.63,0,0,1,19.5-44.49c42.21-35.35,77.12-75.57,103.75-119.58a54.65,54.65,0,0,1,50.23-26.22c76.32,4.87,140-24.39,158.49-72.81,24.62-64.55-30.83-149.91-126.24-194.32a54.66,54.66,0,0,1-31.45-45.74L2654,2598.77c-.34-4.77-7.3-49.39-147.41-142.9C1951.05,2085,1119,2141.43,612.51,2584.28c-131.76,115.2-132.59,161.24-132.25,166.11l46.36,664.68a54.64,54.64,0,0,1-34.63,54.7c-72.13,28.16-116.37,80.17-112.72,132.5,5,71.14,97.6,126.27,206.48,122.85A54.72,54.72,0,0,1,603.13,3727.4Z"/><path class="cls-8" d="M1370.33,1642.74C207.23,1755.94,86.85,2843,60.08,3031c-32.3,226.83,78,427.67,348.22,392.78,356.64-46-70.15-1005.7,1063.26-1084.75,798.17-55.66,1013.46,448.06,1048,536.47,97.63,249.85,106.92,393.57,283.25,381.27s362.71-89.46,290.32-437.31C3083.38,2772.6,2890.17,1494.82,1370.33,1642.74Z"/><path class="cls-6" d="M235.61,3466.69c-60.94-18.26-104-49.66-133.26-79.26C20,3304-15.09,3171.31,6,3023.31l2.2-15.84c16.64-120.3,60.83-439.88,248-750.43C494.47,1861.76,867.54,1636.78,1365,1588.36h0c1456.06-141.7,1738.77,987.27,1780.65,1215l.94,5c33.43,160.7,17.45,285.7-47.53,371.53-59.7,78.86-155.38,121.84-292.49,131.41-184.92,12.86-232-120.42-291.52-289.22-13.38-37.93-28.55-80.93-46.42-126.67-51-130.43-273.18-552.07-993.31-501.85-686.29,47.86-762.76,422.13-824.2,722.85-35.74,174.9-69.49,340.1-235.87,361.58C343,3487.32,283.73,3481.1,235.61,3466.69ZM1370.33,1642.74l5.29,54.38C662.15,1766.56,226.73,2224.85,116.44,3022.44l-2.27,16.28c-16.23,113.92,7.82,213,66,271.94,50.81,51.49,125.23,71.33,221.18,59,85-11,107.4-101.86,142.78-275.06,61.54-301.19,154.53-756.36,923.67-810,794.45-55.41,1044.87,423.11,1102.69,571.09,18.54,47.44,34,91.35,47.7,130.09,62.54,177.3,82.92,223.34,180.86,216.56,103.77-7.24,173.43-36.14,213-88.36,45.08-59.55,54.39-154.87,27.66-283.32-.31-1.49-.78-4-1.42-7.46-20.36-110.73-90.54-396.19-301.81-654.68-303.34-371.12-761.17-529.72-1360.79-471.35Z"/><g class="cls-5"><path class="cls-6" d="M2984.68,3158.56c-489-185.6-296.17-1096.19-1446.6-1052.57-389.32,14.76-646,145.62-815.36,312.26C583.69,2526,516.65,2666.07,476,2803.6c-51.84,136.81-70.77,260.49-77.63,333.71-27.87,98.45-68,167.7-157.61,179.27-47.81,6.17-90.5,4.83-128.4-2.58,56.2,81.35,154,128.13,295.91,109.8,58.49-7.56,95.84-39.79,122.52-88.59.79-1.43,1.59-2.83,2.36-4.3,1.45-2.78,2.86-5.64,4.25-8.52.76-1.58,1.53-3.15,2.27-4.76q2.06-4.46,4-9c.67-1.55,1.32-3.13,2-4.71,1.33-3.24,2.66-6.51,3.95-9.85.46-1.2.9-2.44,1.35-3.65,6.44-17.26,12.21-35.81,17.52-55.46l.45-1.65q2-7.36,3.88-14.94c.11-.41.21-.82.31-1.23,18.5-73.78,32.49-161,55.38-251.58l.06-.22c7.87-31.13,16.82-62.65,27.35-94.12l1.23-3.61q3.24-9.59,6.7-19.17c.57-1.59,1.15-3.17,1.73-4.76q3.43-9.37,7.1-18.72c.56-1.44,1.1-2.87,1.67-4.3q4.3-10.86,8.91-21.68c.13-.29.24-.58.37-.87q9.83-23,21.22-45.58c.8-1.58,1.63-3.14,2.43-4.71q4.42-8.61,9.07-17.15c1.12-2.05,2.26-4.09,3.41-6.14q4.46-8,9.15-15.9c1.22-2.05,2.42-4.1,3.66-6.13,3.37-5.57,6.86-11.1,10.42-16.61,1-1.6,2-3.22,3.1-4.83q14.08-21.41,30.15-42.14c1.14-1.47,2.35-2.91,3.5-4.37q6.29-8,12.87-15.78c1.74-2.06,3.54-4.1,5.31-6.15q6-6.95,12.28-13.78c2-2.16,4-4.31,6-6.46q6.4-6.78,13.13-13.46c2-2,3.93-4,5.94-5.92q7.89-7.66,16.18-15.15c1.31-1.18,2.55-2.39,3.87-3.57q10.49-9.34,21.59-18.43c1.1-.89,2.27-1.76,3.38-2.66q9.33-7.5,19.09-14.83c2.44-1.82,5-3.61,7.45-5.41,5.39-3.92,10.85-7.79,16.44-11.61,2.9-2,5.85-3.93,8.8-5.88q8.24-5.45,16.77-10.73c3.05-1.89,6.09-3.78,9.19-5.65,6.14-3.69,12.43-7.29,18.8-10.87,2.77-1.55,5.48-3.14,8.3-4.67,9.16-5,18.5-9.9,28.14-14.65l.21-.11c9.75-4.81,19.79-9.48,30-14,3.07-1.36,6.26-2.66,9.37-4,7.26-3.12,14.59-6.21,22.11-9.21,3.91-1.56,7.92-3.08,11.9-4.61q10.54-4,21.41-7.92c4.24-1.51,8.51-3,12.84-4.48,7.48-2.55,15.12-5,22.84-7.44,4.18-1.32,8.32-2.66,12.57-3.94,9.06-2.72,18.33-5.33,27.7-7.89,3.09-.84,6.07-1.73,9.19-2.56q18.81-5,38.47-9.46c3.11-.71,6.36-1.35,9.51-2,10.13-2.24,20.37-4.41,30.84-6.46,4.88-1,9.89-1.84,14.85-2.76,9-1.67,18.2-3.29,27.52-4.82,5.5-.9,11.07-1.78,16.67-2.63q13.83-2.1,28.05-4c5.68-.76,11.34-1.53,17.11-2.24,10.27-1.27,20.75-2.41,31.31-3.52,5.13-.54,10.17-1.12,15.37-1.62,15.56-1.49,31.37-2.83,47.56-4l.8-.07.43,0c15.43-1.07,30.57-1.87,45.57-2.53,4.28-.19,8.51-.34,12.76-.49q18-.66,35.56-.94c3.26-.06,6.57-.15,9.82-.18q21.75-.21,42.88.15c3,.05,5.92.16,8.89.22q17.28.4,34.14,1.16c3.59.17,7.19.32,10.76.51q41.36,2.19,80.17,6.52c3,.33,5.92.69,8.87,1q16.65,2,32.84,4.29c1.9.27,3.84.52,5.73.8q19.17,2.86,37.7,6.2c1.38.24,2.72.52,4.09.77q16.56,3,32.59,6.48l6.18,1.33q36,7.89,69.4,17.56l4,1.17q16.21,4.74,31.88,9.85l.83.27q33.45,11,64.29,23.58l1.7.69q31,12.66,59.4,26.68c286.05,140.71,385.05,373.87,407.52,431.37,97.63,249.85,106.92,393.57,283.25,381.27,64.85-4.52,131-17.89,185.21-50.2Z"/></g><path class="cls-3" d="M1668.6,2278.11c-12.51-41-26.66-81.48-42.86-121.15-33.66-82.47-75.72-161.3-129.2-232.68-80-106.74-181.72-198.64-302.38-255.45a1551,1551,0,0,0-159.2,40.49c16.31,4.76,32.39,10.21,48,16.23,63.06,24.31,122.26,59,175,101.1,114.84,91.6,195.15,215.54,252.12,349.8,17.25,40.67,32.32,82.25,45.56,124.39,3.63,11.53,6.93,23,10.27,34.45,41.18-.64,80.93,0,118.79,2.36C1680.16,2317.58,1674.61,2297.81,1668.6,2278.11Z"/><path class="cls-3" d="M2637.72,2840.94a783,783,0,0,1-48.7,67.33,1117.25,1117.25,0,0,0-105.86-111,713.92,713.92,0,0,1,36.4,78.27c29,74.13,50.15,138.82,70.23,193,1.66-1.31,3.31-2.64,4.93-4,.69,1.07,1.46,2.08,2.15,3.14,30.6,47.25,102.08-1.66,72.16-49.22-4.5-7.14-9.34-14-14-21.05a936.08,936.08,0,0,0,57.66-75.69c44.47-65.51,82.2-134.86,110.11-209.06,53.56-142.47,73.13-294.18,52.95-444.36a1406.13,1406.13,0,0,0-121-162.77C2816.73,2353.34,2776.43,2624.38,2637.72,2840.94Z"/><path class="cls-3" d="M541.85,2758.39C389.72,2772.46,247.16,2823,114.72,2898c-13,7.38-25.69,15.22-38.23,23.25-8.12,47.83-12.95,85.36-16.31,109,84-43.92,173.13-79.74,262.54-107.2,106.89-32.82,220.07-49.9,331.13-45.38a906.07,906.07,0,0,1,48.64-120.28A942.74,942.74,0,0,0,541.85,2758.39Z"/><path class="cls-3" d="M2125.62,2426.78c-2.84,6.68-5.95,13.25-8.89,19.89A891.08,891.08,0,0,1,2217,2504.86c1.72-3.7,3.4-7.36,5-10.87,16.3-35.28,29.69-71.84,41.56-108.82A895.23,895.23,0,0,0,2304.25,2167c8.94-144.75-14.45-289-73.66-421.7-1.36-3-2.86-6-4.26-9q-58-22.14-121.1-40.21c35,77,57.87,159.68,71.51,241.21,22.28,133.18,17.78,261.28-17.23,391.32A703.8,703.8,0,0,1,2125.62,2426.78Z"/><path class="cls-3" d="M268.31,2396.3c81.84-7.18,164.74-8,246.78-4A1907.81,1907.81,0,0,1,972,2471c47-26.85,100.43-50.58,161.27-70.45-28.46-10.76-57.06-21.11-85.93-30.73a1858.51,1858.51,0,0,0-248.82-64.11c-161.64-29.95-330.76-40.36-494.71-21.69-23.12,38.27-44,76.78-62.91,115.08Q254.66,2397.5,268.31,2396.3Z"/><g class="cls-2"><path class="cls-3" d="M2754.71,2105.43c-246.64-285.49-668.17-532.4-1384.38-462.69C485.27,1728.88,204,2378.88,108.34,2767.59c41.37-106.85,223.9-525.61,632.35-792.79a23.29,23.29,0,0,0,1.75,8.57c12.11,27.73,78.13,25.66,147.46-4.63s115.71-77.32,103.59-105c-4.1-9.39-14.75-15.08-29.25-17.7C1373.77,1684.36,1953.61,1675.08,2754.71,2105.43Z"/></g><path class="cls-6" d="M235.61,3466.69c-60.94-18.26-104-49.66-133.26-79.26C20,3304-15.09,3171.31,6,3023.31l2.2-15.84c16.64-120.3,60.83-439.88,248-750.43C494.47,1861.76,867.54,1636.78,1365,1588.36h0c1456.06-141.7,1738.77,987.27,1780.65,1215l.94,5c33.43,160.7,17.45,285.7-47.53,371.53-59.7,78.86-155.38,121.84-292.49,131.41-184.92,12.86-232-120.42-291.52-289.22-13.38-37.93-28.55-80.93-46.42-126.67-51-130.43-273.18-552.07-993.31-501.85-686.29,47.86-762.76,422.13-824.2,722.85-35.74,174.9-69.49,340.1-235.87,361.58C343,3487.32,283.73,3481.1,235.61,3466.69ZM1370.33,1642.74l5.29,54.38C662.15,1766.56,226.73,2224.85,116.44,3022.44l-2.27,16.28c-16.23,113.92,7.82,213,66,271.94,50.81,51.49,125.23,71.33,221.18,59,85-11,107.4-101.86,142.78-275.06,61.54-301.19,154.53-756.36,923.67-810,794.45-55.41,1044.87,423.11,1102.69,571.09,18.54,47.44,34,91.35,47.7,130.09,62.54,177.3,82.92,223.34,180.86,216.56,103.77-7.24,173.43-36.14,213-88.36,45.08-59.55,54.39-154.87,27.66-283.32-.31-1.49-.78-4-1.42-7.46-20.36-110.73-90.54-396.19-301.81-654.68-303.34-371.12-761.17-529.72-1360.79-471.35Z"/><path class="cls-6" d="M2573.66,3674.26c-25.41-7.61-40-15.92-43.81-18.27a54.64,54.64,0,0,1,56.18-93.72c3.28,1.76,79.18,40,231.1-6a54.64,54.64,0,0,1,31.68,104.58C2714.87,3701.41,2623.45,3689.18,2573.66,3674.26Z"/><path class="cls-6" d="M646.13,4032.07A54.66,54.66,0,0,1,608,3989.5c-30.1-165.15,63.23-243.92,116.78-262.51l35.83,103.24,1.12-.42c-6.83,2.75-66.28,30-46.22,140.09a54.67,54.67,0,0,1-69.39,62.17Z"/><path class="cls-3" d="M628.36,3239.63s-212.29-99.33-168-206.75c64.7-156.83,301.51-10.4,301.51-10.4"/><path class="cls-6" d="M612.75,3292a55.85,55.85,0,0,1-7.54-2.88c-26.56-12.43-257.73-125.8-195.33-277.08,20-48.43,55.24-82,102-97.13,114.85-37.14,262.35,51,278.79,61.1A54.64,54.64,0,1,1,733.16,3069c-45.68-28-137.14-66.51-187.77-50-10.83,3.52-24.53,10.66-34.49,34.8-16.27,39.43,81.38,108.72,140.62,136.43A54.64,54.64,0,0,1,612.75,3292Z"/><path class="cls-6" d="M612.75,3292a55.85,55.85,0,0,1-7.54-2.88c-26.56-12.43-257.73-125.8-195.33-277.08,20-48.43,55.24-82,102-97.13,114.85-37.14,262.35,51,278.79,61.1A54.64,54.64,0,1,1,733.16,3069c-45.68-28-137.14-66.51-187.77-50-10.83,3.52-24.53,10.66-34.49,34.8-16.27,39.43,81.38,108.72,140.62,136.43A54.64,54.64,0,0,1,612.75,3292Z"/><path class="cls-3" d="M2136.63,3765.34s176.67,154,104.45,245.06c-105.43,132.91-292.69-73.14-292.69-73.14"/><path class="cls-6" d="M2094.71,4100.58C1999.46,4072,1918.62,3985.72,1908,3974a54.64,54.64,0,0,1,80.87-73.5c36.18,39.58,113.5,101.77,166.7,99.89,11.38-.4,26.51-3.49,42.74-23.95,33.53-42.27-42.93-128.77-65.24-149.62a54.64,54.64,0,0,1,74.36-80.08c66.91,62,158.32,194.45,76.49,297.61-32.55,41-75.7,63.61-124.78,65.25C2137.34,4110.33,2115.67,4106.85,2094.71,4100.58Z"/><g class="cls-5"><path class="cls-6" d="M2786.36,2143.53l-280.18,698.91-.94-.83c6.47,14.25,11.17,25.85,14.32,33.91,45.06,115.29,71.31,207.92,103.83,273.11L2963.58,2426C2920,2335.51,2862.28,2238.14,2786.36,2143.53Z"/></g><path class="cls-6" d="M812.25,4120.36a54.65,54.65,0,0,1,5.52-106.06c83.39-15.7,162.19-106.48,185.51-140.13a54.64,54.64,0,0,1,90,62c-4.44,6.45-110.21,158.21-255.28,185.53A54.48,54.48,0,0,1,812.25,4120.36Z"/><path class="cls-6" d="M1236.44,3152.28c-12.3-104.6-81-182.51-153.34-174.05S962,3078.35,974.33,3182.94s80.94,182.52,153.31,174S1248.72,3256.85,1236.44,3152.28Z"/><path class="cls-3" d="M1115.37,3128c-4.54-38.53-28.73-67.34-54-64.38s-42.14,36.56-37.61,75.11,28.71,67.32,54,64.37S1119.89,3166.5,1115.37,3128Z"/><path class="cls-6" d="M1386,3203.44c18.89,127,104.7,252.45,192.32,239.4s143.86-159.62,125-286.67Z"/><path class="cls-9" d="M1439.33,3350.72c26.39-30.82,66.05-53.22,112.53-59.62,51.57-7.09,100.41,7,135.16,34.76-22,62.35-60.57,109.81-108.68,117C1527,3450.48,1476.33,3410.59,1439.33,3350.72Z"/><path class="cls-6" d="M1525.14,3485.62c-38.1-11.42-74.71-38.93-106.75-80.95-40.1-52.59-69.13-123.37-79.65-194.2a47.79,47.79,0,0,1,40.23-54.31l317.3-47.28a47.79,47.79,0,0,1,54.33,40.26c21.73,146.1-44.32,323-165.21,341A137.6,137.6,0,0,1,1525.14,3485.62Zm-81.44-242.44c11.38,38.55,29.19,75.27,50.72,103.52,25.86,33.92,54.61,52.15,76.88,48.86,43.58-6.5,86.65-90.91,87.88-184.48Z"/><path class="cls-6" d="M2135.43,3040.76c-12.31-104.6-81-182.51-153.35-174.05S1861,2966.83,1873.31,3071.42s80.94,182.52,153.31,174S2147.7,3145.33,2135.43,3040.76Z"/><path class="cls-3" d="M2014.35,3016.47c-4.53-38.53-28.73-67.34-54-64.38s-42.14,36.56-37.61,75.11,28.72,67.32,54,64.36S2018.87,3055,2014.35,3016.47Z"/><path class="cls-1" d="M2533.63,3297.13l-23-11.52a80.93,80.93,0,0,1-37.27-106.31l1414.3-2976C4011.72-90.32,4348.14,101,4174.16,346.57L2641.05,3263.2A80.92,80.92,0,0,1,2533.63,3297.13Z"/><path class="cls-4" d="M3702.14,623.57s115.81,136,261.61,145.66l-144.5,246.68s-165.23,7.34-223.16-139.66Z"/><g class="cls-2"><path class="cls-3" d="M3900.7,207.17,2504.54,3145c19.57,63.21,32,103.24,32,103.24s1196-2529.87,1447.29-2992.07a41.83,41.83,0,0,0,8.53,9.65c23.58,19,63.2,8.86,88.49-22.58s26.68-72.31,3.1-91.27a39.12,39.12,0,0,0-4.15-2.51c64.34-23,119.57,23.62,119.57,23.62s5.1-16.71,13.14-43.08C4150.31,30.42,3981.07,17.07,3900.7,207.17Z"/></g><path class="cls-6" d="M3726.91,1041c-58.85-17.63-130.14-58.13-166.61-150.67a38.48,38.48,0,0,1,.32-29l106.05-252.68a38.47,38.47,0,0,1,64.71-10.1h0c1.06,1.24,107.54,123.84,234.91,132.26a38.47,38.47,0,0,1,30.65,57.83l-144.5,246.68a38.48,38.48,0,0,1-31.49,19C3817.35,1054.5,3776.55,1055.89,3726.91,1041Zm-89-165.1c39.53,80.77,121.57,97.45,159.66,100.8l104.81-178.91c-80-21-146.41-70.45-186.92-106.65Z"/><path class="cls-6" d="M2531.39,3354.81a138.25,138.25,0,0,1-22.19-8.81l-23-11.52a135,135,0,0,1-62.45-178.08L3837.77,180.84C3884.6,70.93,3965.54,5.14,4060,.27c78.56-4,153.81,37.78,191.65,106.59,43.75,79.55,32.52,177.12-30.75,268.22L2689.41,3288.62C2658,3346.78,2592,3373,2531.39,3354.81Zm1567-3241.44a96.94,96.94,0,0,0-32.81-4c-51.33,2.64-97.87,44.6-127.68,115.12-.31.74-.63,1.46-1,2.18L2522.67,3202.76c-5.74,12.42-.42,27.6,12.37,34l23,11.51h0a26.17,26.17,0,0,0,34.89-11L4125.79,321.15a53.42,53.42,0,0,1,3.79-6.17c40-56.47,49.61-113.13,26.32-155.45A97.56,97.56,0,0,0,4098.43,113.37Z"/></g></g></svg>